<svg xmlns="http://www.w3.org/2000/svg" version="1.1" xmlns:xlink="http://www.w3.org/1999/xlink" xmlns:svgjs="http://svgjs.dev/svgjs" width="2000" height="2250" viewBox="0 0 2000 2250"><g transform="matrix(1,0,0,1,0.0011525275272106228,0)"><svg viewBox="0 0 320 360" data-background-color="#ffffff" preserveAspectRatio="xMidYMid meet" height="2250" width="2000" xmlns="http://www.w3.org/2000/svg" xmlns:xlink="http://www.w3.org/1999/xlink"><g id="tight-bounds" transform="matrix(1,0,0,1,0.00018440440442191175,0)"><svg viewBox="0 0 320 360" height="360" width="320"><g><svg></svg></g><g><svg viewBox="0 0 320 360" height="360" width="320"><g><path d="M294.684 112.125c-8.775-10.699-25.381-16.201-43-22.006-7.56-2.498-15.357-5.097-22.985-8.235-7.695-3.173-15.256-7.257-22.613-11.172-14.952-8.033-30.41-16.336-46.105-16.336-15.661 0-31.119 8.303-46.071 16.336-7.358 3.949-14.952 8.033-22.648 11.205-7.594 3.139-15.425 5.704-22.985 8.236-17.618 5.839-34.224 11.341-42.999 22.006-11.712 14.277-11.442 35.439-11.172 57.817 0.034 3.375 0.068 6.717 0.067 10.024 0 3.308-0.034 6.649-0.101 10.024-0.27 22.411-0.54 43.54 11.172 57.851 8.775 10.666 25.381 16.167 42.966 22.006 7.56 2.498 15.357 5.097 23.019 8.235 7.695 3.173 15.256 7.223 22.579 11.172 14.986 8.067 30.444 16.37 46.105 16.37 15.695 0 31.153-8.303 46.105-16.336 7.358-3.949 14.918-8.033 22.614-11.172 7.594-3.139 15.357-5.704 22.884-8.202 17.72-5.873 34.326-11.374 43.101-22.039 11.712-14.277 11.442-35.439 11.171-57.817-0.034-3.409-0.101-6.75-0.101-10.058 0-3.308 0.034-6.649 0.101-9.991 0.371-22.479 0.641-43.641-11.104-57.918zM305.552 103.215c-15.728-19.171-45.801-23.727-71.486-34.326-22.985-9.45-46.375-28.588-74.051-28.587-27.676 0-51.066 19.137-74.052 28.587-25.719 10.598-55.758 15.155-71.486 34.326-17.078 20.791-14.311 50.121-14.311 76.785 0 26.63-2.768 55.994 14.277 76.785 15.728 19.171 45.801 23.727 71.487 34.326 22.985 9.484 46.375 28.588 74.051 28.587 27.676 0 51.066-19.103 74.051-28.587 25.719-10.598 55.758-15.155 71.486-34.326 17.045-20.791 14.277-50.121 14.277-76.785 0.068-26.664 2.835-55.994-14.243-76.785zM309.872 189.923c0.304 23.221 0.574 45.059-12.083 60.483-9.518 11.577-26.664 17.281-44.822 23.289-7.56 2.498-15.29 5.063-22.715 8.134-7.493 3.071-14.952 7.088-22.175 10.969-15.458 8.303-31.355 16.842-48.062 16.842-16.707 0-32.604-8.539-47.995-16.808-7.257-3.915-14.75-7.932-22.243-11.003-7.527-3.105-15.256-5.67-22.748-8.134-18.192-6.008-35.338-11.712-44.823-23.289-12.623-15.391-12.353-37.262-12.083-60.415 0.034-3.375 0.101-6.683 0.101-9.991 0-3.308-0.034-6.615-0.067-9.991-0.304-23.154-0.574-45.025 12.083-60.415 9.518-11.577 26.664-17.247 44.822-23.289 7.527-2.498 15.256-5.063 22.749-8.134 7.493-3.105 14.986-7.122 22.242-11.003 15.391-8.269 31.322-16.842 47.995-16.842 16.673 0 32.604 8.539 47.995 16.808 7.257 3.915 14.75 7.932 22.243 11.003 7.493 3.105 15.256 5.637 22.715 8.134 18.158 6.008 35.338 11.712 44.822 23.289 12.657 15.425 12.387 37.262 12.083 60.416-0.034 3.409-0.101 6.717-0.101 9.99 0 3.308 0.034 6.615 0.067 9.957z" fill="#2d4f8f" fill-rule="nonzero" stroke="none" stroke-width="1" stroke-linecap="butt" stroke-linejoin="miter" stroke-miterlimit="10" stroke-dasharray="" stroke-dashoffset="0" font-family="none" font-weight="none" font-size="none" text-anchor="none" style="mix-blend-mode: normal" data-fill-palette-color="tertiary"></path></g><g transform="matrix(1,0,0,1,64,166.9425132564599)"><svg viewBox="0 0 192 26.114973487080213" height="26.114973487080213" width="192"><g><svg viewBox="0 0 192 26.114973487080213" height="26.114973487080213" width="192"><g><svg viewBox="0 0 192 26.114973487080213" height="26.114973487080213" width="192"><g id="textblocktransform"><svg viewBox="0 0 192 26.114973487080213" height="26.114973487080213" width="192" id="textblock"><g><svg viewBox="0 0 192 26.114973487080213" height="26.114973487080213" width="192"><g transform="matrix(1,0,0,1,0,0)"><svg width="192" viewBox="-1.17 -37.99 290.04 39.45" height="26.114973487080213" data-palette-color="#ffffff"><path d="M-1.17 0L-1.17 0Q0.34-5.59 2.17-11.35 4-17.11 6.73-25.13 9.45-33.15 10.45-36.23L10.45-36.23Q10.74-36.72 10.84-36.82L10.84-36.82 14.94-36.82Q16.38-36.82 19.19-36.87 22-36.91 23.44-36.91L23.44-36.91 27.54-36.91Q27.91-36.91 28.15-36.9 28.39-36.89 28.74-36.84 29.08-36.79 29.28-36.69 29.49-36.6 29.64-36.4 29.79-36.21 29.79-35.94L29.79-35.94 41.04-0.27Q41.04 0.22 40.69 0.4 40.33 0.59 39.36 0.59L39.36 0.59 37.11 0.59Q36.13 0.59 34.2 0.61 32.28 0.63 31.3 0.63L31.3 0.63Q31.01 0.63 30.11 0.67 29.22 0.71 28.61 0.7 28 0.68 27.26 0.62 26.51 0.56 26.06 0.35 25.61 0.15 25.49-0.2L25.49-0.2 25.49-1.81Q25.24-3.03 24.63-4.05 24.02-5.08 23.34-5.08L23.34-5.08 14.94-5.08 13.67 0.1Q13.4 0.68 10.94 0.68L10.94 0.68 8.98 0.68Q7.93 0.68 5.86 0.76 3.78 0.83 2.73 0.83L2.73 0.83 2.05 0.83Q1.66 0.83 0.82 0.85-0.02 0.88-0.49 0.88L-0.49 0.88Q-0.68 0.68-1.17 0ZM17.72-23.29L15.77-14.82 16.46-13.67 18.07-13.67Q20.02-13.67 21.64-13.9 23.27-14.14 23.27-14.65L23.27-14.65 20.12-28.71Q19.68-28.71 18.93-27.05 18.19-25.39 17.72-23.29L17.72-23.29ZM42.23-3.32L42.23-3.32 42.23-36.18 63.33-36.91Q65.28-36.91 66.99-36.67 68.7-36.43 70.44-35.75 72.19-35.08 73.42-34.02 74.66-32.96 75.44-31.2 76.22-29.44 76.22-27.15L76.22-27.15Q76.22-24.1 74.88-22.2 73.53-20.31 70.85-18.85L70.85-18.85Q74-17.97 75.64-15.81 77.29-13.65 77.29-10.35L77.29-10.35Q77.29-7.91 76.36-5.97 75.44-4.03 73.97-2.81 72.51-1.59 70.53-0.78 68.55 0.02 66.61 0.35 64.67 0.68 62.64 0.68L62.64 0.68Q61.47 0.68 59.12 0.63 56.76 0.59 55.56 0.59L55.56 0.59Q48.78 0.59 43.11 0.78L43.11 0.78Q42.31-0.51 42.23-3.32ZM56.25-28.03L56.25-28.03Q56.25-26.93 56.32-24.76 56.39-22.58 56.39-21.48L56.39-21.48Q56.39-21.02 56.98-20.95L56.98-20.95Q57.32-21 58.16-21.11 59.01-21.22 59.49-21.29 59.98-21.36 60.68-21.64 61.37-21.92 61.77-22.31 62.16-22.71 62.45-23.45 62.74-24.19 62.74-25.2L62.74-25.2Q62.74-28.91 57.61-28.91L57.61-28.91Q56.59-28.74 56.42-28.56L56.42-28.56Q56.25-28.37 56.25-28.03ZM56.69-10.3L56.69-9.42Q56.69-7.62 56.88-7.62L56.88-7.62 57.66-7.62Q58.62-7.62 59.31-7.68 60.01-7.74 60.81-7.98 61.62-8.23 62.11-8.65 62.6-9.08 62.94-9.86 63.28-10.64 63.28-11.72L63.28-11.72Q63.28-12.33 63.16-12.84 63.03-13.35 62.77-13.72 62.5-14.09 62.24-14.36 61.98-14.62 61.51-14.81 61.03-14.99 60.73-15.1 60.42-15.21 59.81-15.28 59.2-15.36 58.93-15.38 58.66-15.41 58.01-15.44 57.35-15.48 57.18-15.48L57.18-15.48 57.18-14.55Q57.15-14.28 56.92-12.74 56.69-11.21 56.69-10.3L56.69-10.3ZM89.99 0.63L87.1 0.63Q86.42 0.63 85.52 0.67 84.61 0.71 84.13 0.73 83.64 0.76 83.02 0.72 82.39 0.68 82.08 0.55 81.76 0.42 81.4 0.15 81.05-0.12 80.89-0.59 80.73-1.05 80.62-1.73 80.51-2.42 80.51-3.37L80.51-3.37Q80.51-8.64 80.71-17.76 80.9-26.88 80.9-31.15L80.9-31.15Q80.9-36.43 81.44-36.72L81.44-36.72 90.52-36.72Q92.94-36.72 94.12-36.44 95.31-36.16 95.7-35.6 96.09-35.03 96.09-33.89L96.09-33.89Q96.09-33.54 96.04-32.56 95.99-31.57 95.99-30.91L95.99-30.91 95.99-29.79Q95.99-29 95.92-27.44 95.84-25.88 95.84-25.1L95.84-25.1 95.84-24.61Q95.89-24.46 95.89-24.22L95.89-24.22 96.87-24.22Q97.29-24.22 98.14-24.19 98.99-24.17 99.41-24.17L99.41-24.17Q100.53-24.17 101.07-24.32L101.07-24.32 101.07-34.47Q101.07-35.69 101.19-36.22 101.31-36.74 101.53-36.88 101.75-37.01 102.34-37.01L102.34-37.01Q102.66-37.01 103.36-36.99 104.07-36.96 104.39-36.96L104.39-36.96 106.2-37.04Q108.03-37.11 109.47-37.11L109.47-37.11Q116.11-37.11 116.11-35.64L116.11-35.64Q116.11-35.25 116.13-34.52 116.16-33.79 116.16-33.4L116.16-33.4Q116.16-32.54 116.13-30.91 116.11-29.27 116.11-28.42L116.11-28.42Q116.11-25.88 116.18-20.85 116.25-15.82 116.25-13.28L116.25-13.28Q116.25-13.06 116.23-12.73 116.21-12.4 116.21-12.3L116.21-12.3 116.21-11.13Q116.21-9.57 116.25-8.79L116.25-8.79 116.25-8.25Q116.21-8.15 116.21-7.96L116.21-7.96Q116.21-6.67 116.25-4.03 116.3-1.39 116.3-0.1L116.3-0.1Q116.13 0.78 111.62 0.78L111.62 0.78 101.46 0.78 100.73-0.24 100.73-1.86Q100.73-3.49 100.75-6.69 100.78-9.89 100.78-11.52L100.78-11.52Q100.78-12.08 100.64-12.29 100.51-12.5 100.09-12.5L100.09-12.5 99.21-12.5Q97.55-12.5 96.19-12.3L96.19-12.3Q96.19-10.28 96.14-6.21 96.09-2.15 96.09-0.1L96.09-0.1Q95.8 0.63 89.99 0.63L89.99 0.63ZM136.47 0.63L120.7 0.63Q120.79-6.47 121.04-9.77L121.04-9.77Q121.04-20.02 121.33-30.57L121.33-30.57Q121.23-32.62 121.23-33.59L121.23-33.59 121.23-34.33Q121.14-35.4 121.14-36.08L121.14-36.08Q121.14-36.55 121.57-36.91L121.57-36.91Q125.58-36.62 133.78-36.62L133.78-36.62Q135.73-36.62 136.47-36.72L136.47-36.72 136.47 0.63ZM157.02 1.46L157.02 1.46Q154.14 1.34 151.85 0.96 149.55 0.59 147.41-0.26 145.28-1.1 143.83-2.38 142.37-3.66 141.41-5.66 140.44-7.67 140.22-10.3L140.22-10.3Q140.22-10.77 140.71-10.84L140.71-10.84Q140.86-10.79 141.2-10.79L141.2-10.79Q143.23-10.79 147.35-10.89 151.48-10.99 153.51-10.99L153.51-10.99Q154.02-10.99 154.31-10.66 154.6-10.33 154.79-9.85 154.97-9.38 155.23-8.9 155.48-8.42 156.11-8.09 156.73-7.76 157.7-7.76L157.7-7.76Q158.9-7.76 159.82-8.44 160.73-9.11 160.73-10.25L160.73-10.25Q160.73-11.01 159.95-11.65 159.17-12.28 157.89-12.68 156.61-13.09 155.45-13.37 154.29-13.65 153.07-13.85 151.85-14.06 151.65-14.11L151.65-14.11Q145.72-15.72 143.12-18.12 140.52-20.51 140.52-24.66L140.52-24.66Q140.52-27.59 141.59-29.92 142.67-32.25 144.4-33.73 146.13-35.21 148.5-36.19 150.87-37.18 153.29-37.59 155.7-37.99 158.29-37.99L158.29-37.99Q165.15-37.99 169.23-35.45L169.23-35.45Q170.72-33.96 171.41-33.19 172.11-32.42 172.76-31.4 173.4-30.37 173.66-29.38 173.92-28.39 174.01-26.95L174.01-26.95 173.13-26.07Q168.13-25.88 161.9-25.88L161.9-25.88Q161.12-25.88 160.65-26.05 160.17-26.22 160.01-26.49 159.85-26.76 159.69-27.05 159.54-27.34 159.4-27.61 159.27-27.88 158.84-28.05 158.41-28.22 157.7-28.22L157.7-28.22Q157.51-28.22 157.08-28.15 156.66-28.08 156.08-27.92 155.51-27.76 155.09-27.43 154.68-27.1 154.68-26.66L154.68-26.66Q154.68-26.12 155.23-25.68 155.78-25.24 156.39-25.05 157-24.85 157.9-24.62 158.8-24.39 159.02-24.32L159.02-24.32Q164.35-22.97 165.37-22.66L165.37-22.66Q170.72-20.97 172.94-18.24L172.94-18.24Q174.99-15.7 174.99-11.87L174.99-11.87Q174.99-9.55 174.39-7.64 173.79-5.74 172.82-4.42 171.84-3.1 170.38-2.08 168.91-1.05 167.41-0.44 165.91 0.17 164 0.59 162.1 1 160.5 1.18 158.9 1.37 157.02 1.46ZM187.15 0.63L184.26 0.63Q183.58 0.63 182.68 0.67 181.77 0.71 181.29 0.73 180.8 0.76 180.18 0.72 179.55 0.68 179.24 0.55 178.92 0.42 178.56 0.15 178.21-0.12 178.05-0.59 177.89-1.05 177.78-1.73 177.67-2.42 177.67-3.37L177.67-3.37Q177.67-8.64 177.87-17.76 178.06-26.88 178.06-31.15L178.06-31.15Q178.06-36.43 178.6-36.72L178.6-36.72 187.68-36.72Q190.1-36.72 191.28-36.44 192.47-36.16 192.86-35.6 193.25-35.03 193.25-33.89L193.25-33.89Q193.25-33.54 193.2-32.56 193.15-31.57 193.15-30.91L193.15-30.91 193.15-29.79Q193.15-29 193.08-27.44 193.01-25.88 193.01-25.1L193.01-25.1 193.01-24.61Q193.05-24.46 193.05-24.22L193.05-24.22 194.03-24.22Q194.45-24.22 195.3-24.19 196.15-24.17 196.57-24.17L196.57-24.17Q197.69-24.17 198.23-24.32L198.23-24.32 198.23-34.47Q198.23-35.69 198.35-36.22 198.47-36.74 198.69-36.88 198.91-37.01 199.5-37.01L199.5-37.01Q199.82-37.01 200.52-36.99 201.23-36.96 201.55-36.96L201.55-36.96 203.36-37.04Q205.19-37.11 206.63-37.11L206.63-37.11Q213.27-37.11 213.27-35.64L213.27-35.64Q213.27-35.25 213.29-34.52 213.32-33.79 213.32-33.4L213.32-33.4Q213.32-32.54 213.29-30.91 213.27-29.27 213.27-28.42L213.27-28.42Q213.27-25.88 213.34-20.85 213.42-15.82 213.42-13.28L213.42-13.28Q213.42-13.06 213.39-12.73 213.37-12.4 213.37-12.3L213.37-12.3 213.37-11.13Q213.37-9.57 213.42-8.79L213.42-8.79 213.42-8.25Q213.37-8.15 213.37-7.96L213.37-7.96Q213.37-6.67 213.42-4.03 213.46-1.39 213.46-0.1L213.46-0.1Q213.29 0.78 208.78 0.78L208.78 0.78 198.62 0.78 197.89-0.24 197.89-1.86Q197.89-3.49 197.91-6.69 197.94-9.89 197.94-11.52L197.94-11.52Q197.94-12.08 197.8-12.29 197.67-12.5 197.25-12.5L197.25-12.5 196.37-12.5Q194.71-12.5 193.35-12.3L193.35-12.3Q193.35-10.28 193.3-6.21 193.25-2.15 193.25-0.1L193.25-0.1Q192.96 0.63 187.15 0.63L187.15 0.63ZM218.1-0.88L218.1-0.88 218.1-1.81Q218.1-5.98 218.2-14.14 218.3-22.29 218.3-26.46L218.3-26.46 218.3-36.57 246.71-36.57 246.71-28.56Q246.71-28.49 246.71-28.2 246.71-27.91 246.71-27.81 246.71-27.71 246.69-27.45 246.66-27.2 246.6-27.1 246.54-27 246.43-26.82 246.32-26.64 246.18-26.56 246.03-26.49 245.79-26.43 245.54-26.37 245.25-26.37L245.25-26.37 244.57-26.37Q238.24-26.37 233.04-26.56L233.04-26.56Q232.99-26.17 232.88-25.35 232.77-24.54 232.71-23.91 232.65-23.29 232.65-22.71L232.65-22.71 244.27-22.71Q245-22.71 245.25-22.51 245.49-22.31 245.49-21.88L245.49-21.88Q245.49-21.75 245.47-21.48 245.44-21.22 245.44-21.09L245.44-21.09Q245.44-19.92 245.52-17.63 245.59-15.33 245.59-14.16L245.59-14.16Q245.52-13.67 245.2-13.67L245.2-13.67Q245.05-13.67 244.96-13.77L244.96-13.77Q237.24-13.38 233.53-13.38L233.53-13.38 232.9-13.38 232.9-9.86Q235.07-9.86 239.18-10.06 243.3-10.25 245.35-10.25L245.35-10.25Q246.96-10.25 247.2-9.57L247.2-9.57 247.2-7.71Q247.2-6.54 247.25-4.25 247.3-1.95 247.3-0.78L247.3-0.78Q247.3 0.44 246.32 0.44L246.32 0.44Q245.05 0.44 242.42 0.42 239.78 0.39 238.41 0.39L238.41 0.39Q234.9 0.39 228.35 0.57 221.81 0.76 218.88 0.78L218.88 0.78 218.2 0Q218.1-0.68 218.1-0.88ZM262.38 0.78L251.64 0.78Q251.11 0.78 250.82 0.67 250.54 0.56 250.46 0.42 250.37 0.27 250.18-0.15L250.18-0.15 250.18-34.86Q250.18-35.4 250.19-35.64 250.2-35.89 250.28-36.22 250.35-36.55 250.51-36.68 250.67-36.82 250.96-36.91 251.25-37.01 251.69-37.01L251.69-37.01 261.7-37.01Q265.22-37.01 265.22-36.13L265.22-36.13 265.22-36.08Q265.12-27 265.12-22.56L265.12-22.56 271.98-36.84 277.03-36.82Q287.38-36.82 287.38-36.33L287.38-36.33Q287.38-36.23 287.29-36.23L287.29-36.23Q282.55-27.69 277.67-19.24L277.67-19.24 277.67-18.55 278.67-17.92 288.87-0.37Q288.87 0.02 288.31 0.49L288.31 0.49 272.64 0.49 265.66-13.13Q265.51-11.79 265.44-9.23 265.36-6.67 265.31-5.86L265.31-5.86 265.31-0.1Q265.14 0.78 262.38 0.78L262.38 0.78Z" opacity="1" transform="matrix(1,0,0,1,0,0)" fill="#ffffff" class="wordmark-text-0" data-fill-palette-color="quaternary" id="text-0"></path></svg></g></svg></g></svg></g></svg></g></svg></g></svg></g></svg></g><defs></defs></svg><rect width="320" height="360" fill="none" stroke="none" visibility="hidden"></rect></g></svg></g></svg>